<?xml version="1.0" encoding="UTF-8"?>
<svg version="1.1" xmlns="http://www.w3.org/2000/svg" width="1294" height="1265">
<path d="M0 0 C2.86232445 1.01392684 3.82398757 1.6389264 5.17773438 4.41601562 C18.724973 48.6395174 22.15283052 100.63710529 13 146 C12.67056396 147.64476318 12.67056396 147.64476318 12.33447266 149.32275391 C1.54072917 201.77897223 -21.19321865 250.14752139 -56 291 C-56.99103396 292.17695827 -57.98190926 293.35405015 -58.97265625 294.53125 C-63.61465663 300.02105816 -68.24425014 305.4363476 -73.42578125 310.4296875 C-75.21312444 312.2125956 -76.85267648 314.08721375 -78.5 316 C-83.47286223 321.74814142 -88.82113148 326.9056829 -94.578125 331.859375 C-97.09554149 334.08444635 -99.54623328 336.369371 -101.99511719 338.66918945 C-107.51048184 343.84595636 -113.08275013 348.85275849 -118.9921875 353.58203125 C-121.26871146 355.41211999 -123.51906789 357.26139217 -125.7578125 359.13671875 C-135.79554859 367.52819917 -146.11806929 375.45845084 -156.63232422 383.2421875 C-159.49184203 385.36515391 -162.33480577 387.50945502 -165.17700195 389.65551758 C-173.60170188 396.01073363 -182.1433559 402.19724621 -190.71337891 408.35449219 C-192.99307513 409.99501669 -195.26870498 411.64101689 -197.54296875 413.2890625 C-204.83180884 418.56965645 -212.13855841 423.82098927 -219.5 429 C-228.38939682 435.2564157 -237.21161711 441.60254694 -246 448 C-246.77633789 448.56477051 -247.55267578 449.12954102 -248.35253906 449.71142578 C-273.57292422 468.08983479 -298.37432342 487.27554636 -321.28125 508.5 C-323.59296482 510.62571478 -325.93355862 512.70045051 -328.3125 514.75 C-334.37396408 520.022557 -339.81165712 525.62574175 -344.625 532.0625 C-345.13224609 532.74022461 -345.63949219 533.41794922 -346.16210938 534.11621094 C-352.22228551 542.41279234 -357.27129201 551.30872826 -362.38867188 560.20410156 C-384.13707668 597.94087911 -407.68991281 617.64318953 -447.30053711 635.21679688 C-454.37750935 638.36433416 -461.37065808 641.59910532 -468.21875 645.22265625 C-468.82105438 645.53918152 -469.42335876 645.85570679 -470.04391479 646.18182373 C-483.06324396 653.20332419 -494.74160228 664.39636049 -500.2734375 678.25 C-502.4163214 686.36070035 -501.88083205 691.82545529 -498.875 699.625 C-496.13415928 707.27259737 -493.8998327 714.86914186 -492.1875 722.8125 C-491.99333496 723.69309082 -491.79916992 724.57368164 -491.59912109 725.48095703 C-488.49782899 740.33394072 -487.6222041 754.87736464 -487.6875 770 C-487.68965515 770.90140717 -487.6918103 771.80281433 -487.69403076 772.73153687 C-487.74866609 787.00951798 -488.35843663 800.93539574 -491 815 C-491.19867676 816.06831055 -491.39735352 817.13662109 -491.60205078 818.23730469 C-497.05077738 846.75026651 -505.52212642 874.25459179 -514.86383057 901.68002319 C-517.44253298 909.25508743 -519.98132165 916.8435795 -522.515625 924.43359375 C-522.76179188 925.17068636 -523.00795876 925.90777897 -523.26158524 926.66720772 C-539.24144373 974.57050585 -557.30956142 1032.5266212 -536.41796875 1081.9453125 C-534.9930034 1088.95028236 -538.72222392 1095.6043914 -541.375 1101.875 C-558.49563891 1143.67939952 -568.89984908 1187.1140762 -574.203125 1231.9375 C-574.3475 1233.14913818 -574.491875 1234.36077637 -574.640625 1235.60913086 C-574.86654074 1237.74075024 -575.0499898 1239.87773275 -575.171875 1242.01782227 C-575.54767143 1248.44805144 -575.54767143 1248.44805144 -577.96875 1251.40234375 C-587.49230433 1257.17820309 -595.02783136 1260.22648748 -606.25 1258.5 C-618.8103015 1256.82529313 -628.85722345 1259.13538076 -640 1265 C-640.66 1265 -641.32 1265 -642 1265 C-642.06469482 1264.28682617 -642.12938965 1263.57365234 -642.19604492 1262.83886719 C-645.72833099 1225.06008232 -658.54123984 1193.5506857 -675.03125 1159.78125 C-684.13920878 1141.09366186 -692.10224815 1122.24952864 -697 1102 C-697.24492188 1101.0821875 -697.48984375 1100.164375 -697.7421875 1099.21875 C-702.41758718 1078.98003359 -697.40383757 1059.60518825 -691.734375 1040.24609375 C-691.53593491 1039.56708511 -691.33749481 1038.88807648 -691.13304138 1038.18849182 C-690.14667995 1034.81957238 -689.14883577 1031.45511172 -688.12329102 1028.09790039 C-674.46713559 982.55290363 -697.16109054 939.6357774 -715.0625 898.4375 C-722.57680204 881.13824518 -730.05214811 863.91454717 -736 846 C-736.32983887 845.00806641 -736.65967773 844.01613281 -736.99951172 842.99414062 C-744.48891946 820.14062206 -749.44533411 797.20734602 -749.375 773.0625 C-749.37418427 771.99474838 -749.37418427 771.99474838 -749.37335205 770.90542603 C-749.28906679 746.69701456 -744.69627392 722.71548252 -734.09643555 700.81665039 C-731.7525956 695.66072641 -731.57181392 691.49144986 -733 686 C-736.15868242 678.63243385 -741.9613597 674.15666706 -747.88867188 668.9609375 C-753.57759219 663.82255786 -756.62461479 660.20520809 -757.328125 652.32421875 C-757.28945312 650.52404297 -757.28945312 650.52404297 -757.25 648.6875 C-757.23453125 647.47449219 -757.2190625 646.26148438 -757.203125 645.01171875 C-757 642 -757 642 -756 640 C-757.134375 639.938125 -758.26875 639.87625 -759.4375 639.8125 C-792.63668447 635.96783701 -821.36387281 613.23263966 -841.625 587.94140625 C-844.15485989 584.80820806 -846.75727333 581.74704876 -849.375 578.6875 C-853.71868515 573.59044269 -857.89095408 568.37829738 -862.01074219 563.09936523 C-868.38306513 554.93553919 -874.91421518 546.96769848 -881.90234375 539.3203125 C-883.71707441 537.3129568 -885.45391687 535.26432391 -887.1875 533.1875 C-895.9988474 523.11738869 -906.43570356 514.52035541 -917.07568359 506.46630859 C-919.051246 504.9609511 -921.00425158 503.42929623 -922.95703125 501.89453125 C-947.93333243 482.49726424 -975.01118402 465.43595612 -1002 449 C-1003.09248047 448.33242676 -1004.18496094 447.66485352 -1005.31054688 446.97705078 C-1017.81455842 439.33731745 -1030.3641668 431.77506771 -1042.9375 424.25 C-1089.50445943 396.363123 -1137.49974854 367.50023388 -1177.41015625 330.37890625 C-1179.48392666 328.47404021 -1181.58556969 326.62958691 -1183.71875 324.79296875 C-1188.48305067 320.63585551 -1192.96993557 316.22204319 -1197.4375 311.75 C-1198.27788818 310.90880615 -1199.11827637 310.0676123 -1199.98413086 309.20092773 C-1204.97764042 304.15783792 -1209.71042576 299.0944707 -1214.0625 293.484375 C-1215.38629931 291.78692266 -1216.76495864 290.13122555 -1218.1875 288.515625 C-1254.70165658 246.95674942 -1276.92990472 189.05528705 -1277.203125 133.69140625 C-1277.21013931 132.73530457 -1277.21715363 131.77920288 -1277.22438049 130.79412842 C-1277.24181569 127.71687057 -1277.2482353 124.63980547 -1277.25 121.5625 C-1277.25067474 120.50888275 -1277.25134949 119.4552655 -1277.25204468 118.36972046 C-1277.23543318 102.03596215 -1276.60334534 86.15304035 -1274 70 C-1273.83371094 68.90945312 -1273.66742187 67.81890625 -1273.49609375 66.6953125 C-1271.29735942 52.46054356 -1268.29423967 38.46788312 -1264.8125 24.5 C-1264.63828522 23.79888092 -1264.46407043 23.09776184 -1264.28457642 22.37539673 C-1263.78635183 20.38387867 -1263.28000056 18.39466117 -1262.76953125 16.40625 C-1262.33024292 14.69405273 -1262.33024292 14.69405273 -1261.88208008 12.94726562 C-1261.12782434 10.42709532 -1260.27363266 8.29065089 -1259 6 C-1258.67 6 -1258.34 6 -1258 6 C-1257.98541748 7.14025635 -1257.97083496 8.2805127 -1257.95581055 9.45532227 C-1256.74384909 97.58897296 -1239.01898454 181.11753774 -1177 247 C-1176.39929687 247.5671875 -1175.79859375 248.134375 -1175.1796875 248.71875 C-1174 250 -1174 250 -1174 252 C-1173.18208984 252.32291016 -1173.18208984 252.32291016 -1172.34765625 252.65234375 C-1169.19621278 254.46140864 -1166.92176828 256.95732314 -1164.4375 259.5625 C-1158.95005215 265.16698665 -1153.21540344 270.20228523 -1147 275 C-1146.40703125 275.45874512 -1145.8140625 275.91749023 -1145.203125 276.39013672 C-1075.03509149 330.46016864 -989.3946026 357.25865136 -893.4375 381.75 C-892.52722046 381.98020844 -891.61694092 382.21041687 -890.67907715 382.44760132 C-881.08057947 384.86886231 -871.48469775 387.15395864 -861.7734375 389.078125 C-860.1568553 389.40855837 -858.54039712 389.73959914 -856.92407227 390.07128906 C-853.95455287 390.68017091 -850.98249997 391.23169899 -847.99584961 391.74902344 C-839.37205301 393.40472896 -835.15991131 396.02686027 -830.0637207 403.24072266 C-826.86830605 407.5131202 -822.81342581 410.21698102 -818.4375 413.1875 C-801.73079162 424.71634234 -801.73079162 424.71634234 -798.0625 433.75 C-797.68222656 434.65234375 -797.30195312 435.5546875 -796.91015625 436.484375 C-796.1258866 438.65205592 -795.53788571 440.76310671 -795 443 C-794.39454346 442.76925781 -793.78908691 442.53851563 -793.1652832 442.30078125 C-753.77802585 427.41240533 -712.38567214 418.80863575 -671.3125 409.9375 C-670.19437927 409.69566986 -669.07625854 409.45383972 -667.92425537 409.2046814 C-664.73798811 408.51713888 -661.5508645 407.83375647 -658.36328125 407.15234375 C-657.41718491 406.94865173 -656.47108856 406.74495972 -655.49632263 406.53509521 C-650.67564996 405.51139739 -645.88865652 404.6264075 -641 404 C-668.42436918 432.80971194 -720.75177204 444.93749407 -759.03686523 446.20532227 C-764.33731672 446.32638206 -769.63594155 446.33400459 -774.9375 446.3125 C-776.34539795 446.30976578 -776.34539795 446.30976578 -777.78173828 446.30697632 C-793.36954373 446.25623993 -808.58402092 445.47083684 -824 443 C-825.06395996 442.83371094 -826.12791992 442.66742188 -827.22412109 442.49609375 C-905.20997869 429.98685178 -978.60826123 396.96330897 -1049.1640625 362.74780273 C-1056.93387923 358.98163929 -1064.72959678 355.27581718 -1072.55545044 351.6277771 C-1073.79747883 351.0485022 -1075.03892714 350.46798171 -1076.27975464 349.88613892 C-1077.99599182 349.08189344 -1079.71474094 348.28301499 -1081.43359375 347.484375 C-1082.41384521 347.02772461 -1083.39409668 346.57107422 -1084.40405273 346.10058594 C-1086.61427328 345.16353391 -1088.6570679 344.48887544 -1091 344 C-1080.05455186 357.17433939 -1067.80376626 367.926627 -1054 378 C-1052.77711332 378.90724156 -1051.55444512 379.81477772 -1050.33203125 380.72265625 C-1042.85066795 386.22624811 -1035.11148307 391.14472497 -1027.07421875 395.79296875 C-1024.94493203 397.0320452 -1022.83189709 398.29612383 -1020.71875 399.5625 C-993.69473048 415.57104692 -965.032479 428.73306128 -936.26763916 441.26039124 C-929.38095195 444.26103044 -922.53404319 447.34633505 -915.6875 450.4375 C-907.78206597 453.99718568 -899.85843153 457.5082078 -891.90234375 460.953125 C-891.11010406 461.29616165 -890.31786438 461.6391983 -889.50161743 461.99263 C-888.69864227 462.34028915 -887.89566711 462.6879483 -887.06835938 463.04614258 C-838.13366113 484.23594347 -788.47390874 505.86009335 -744.6875 536.6875 C-744.10025146 537.09766357 -743.51300293 537.50782715 -742.90795898 537.93041992 C-741.56510321 538.9002487 -740.27550288 539.94315475 -739 541 C-739 541.66 -739 542.32 -739 543 C-755.52971365 547.01589572 -767.90569776 544.27599905 -782.5 535.8125 C-784.42391622 534.70930201 -786.35086557 533.61137161 -788.28125 532.51953125 C-789.11720703 532.03589111 -789.95316406 531.55225098 -790.81445312 531.05395508 C-793.0459668 529.78281542 -793.0459668 529.78281542 -796 530 C-794.9584375 530.71542969 -793.916875 531.43085937 -792.84375 532.16796875 C-782.49863952 539.33493081 -772.64101804 546.91503228 -763 555 C-762.41154297 555.48936035 -761.82308594 555.9787207 -761.21679688 556.48291016 C-744.72765103 570.21611928 -729.52906473 585.3298141 -714.4375 600.5625 C-711.50171239 603.5251481 -708.56240975 606.48424784 -705.62109375 609.44140625 C-704.97200546 610.09879288 -704.32291718 610.7561795 -703.65415955 611.43348694 C-699.84157125 615.26621793 -695.9161702 618.89857164 -691.80860901 622.41404724 C-688.89602316 624.96806723 -686.2062345 627.73113085 -683.5 630.5 C-678.82794865 635.21876519 -674.07645666 639.7156146 -669 644 C-667.95206034 644.91023405 -666.90529407 645.82181987 -665.859375 646.734375 C-643.38763531 666.28324354 -619.05306011 681.70513655 -593 696 C-596.02592431 699.1219854 -599.04510656 701.88662511 -602.5625 704.4375 C-606.32822121 707.32937272 -608.90695738 709.71877647 -611 714 C-611.26666642 716.27041488 -611.26666642 716.27041488 -610 718 C-605.99293307 720.05497647 -602.62993328 720.23462496 -598.16796875 720.1953125 C-596.22954102 720.18564453 -596.22954102 720.18564453 -594.25195312 720.17578125 C-592.8971327 720.15907327 -591.54231499 720.14214342 -590.1875 720.125 C-588.81315749 720.11496003 -587.43880797 720.10583596 -586.06445312 720.09765625 C-582.70945683 720.07411242 -579.35481801 720.04122567 -576 720 C-575.67 721.32 -575.34 722.64 -575 724 C-574.65388672 723.0867395 -574.65388672 723.0867395 -574.30078125 722.1550293 C-569.1598247 708.72986831 -564.43741099 697.18396392 -554 687 C-557.83786534 682.60587855 -557.83786534 682.60587855 -563.08789062 680.87060547 C-564.35922852 680.86891357 -564.35922852 680.86891357 -565.65625 680.8671875 C-566.59726562 680.86589844 -567.53828125 680.86460937 -568.5078125 680.86328125 C-569.49523437 680.86714844 -570.48265625 680.87101563 -571.5 680.875 C-572.45648437 680.87113281 -573.41296875 680.86726562 -574.3984375 680.86328125 C-579.90161184 680.87073813 -585.27666481 681.16191524 -590.74511719 681.76855469 C-593.79174029 682.08126568 -596.81346261 682.16878645 -599.875 682.1875 C-600.94492187 682.20167969 -602.01484375 682.21585938 -603.1171875 682.23046875 C-605.96038081 682.00316739 -607.59129053 681.47198912 -610 680 C-604.56942612 674.47804627 -599.04778827 670.1409233 -592.3125 666.375 C-591.71501953 666.03992432 -591.11753906 665.70484863 -590.50195312 665.35961914 C-588.35482111 664.19584916 -586.18417664 663.09283698 -584 662 C-582.97430908 661.48203857 -581.94861816 660.96407715 -580.8918457 660.43041992 C-570.09761389 655.17460523 -558.94010751 651.35076351 -547.5625 647.5625 C-545.59085411 646.89783739 -543.61950177 646.23230341 -541.6484375 645.56591797 C-532.57396962 642.50379593 -523.48563174 639.49063004 -514.36743164 636.5612793 C-510.74194226 635.37747753 -507.14592628 634.11646925 -503.54980469 632.84667969 C-500.88088913 631.96044844 -498.19191519 631.23795127 -495.4765625 630.5078125 C-488.80047323 628.46332769 -483.04283673 626.44233592 -479.33789062 620.19921875 C-476.23025087 613.19549622 -474.18267102 605.88363887 -472.08886719 598.52734375 C-464.63681589 574.38670762 -448.35457414 551.6170742 -431.21484375 533.3671875 C-429.31487069 531.33652847 -427.52753551 529.26158882 -425.75 527.125 C-416.94420825 517.04061554 -406.47228617 508.45271349 -395.83154297 500.39013672 C-393.93279898 498.94899459 -392.04638385 497.49263108 -390.16015625 496.03515625 C-358.29711428 471.58368346 -322.05620168 453.00467024 -286.71826172 434.18670654 C-251.62107395 415.49410986 -216.48242323 396.46553841 -185 372 C-183.71416016 371.00419922 -183.71416016 371.00419922 -182.40234375 369.98828125 C-177.25408114 365.93810247 -172.33035261 361.69290036 -167.49609375 357.2734375 C-165.85837308 355.78180459 -164.20504577 354.30709219 -162.53515625 352.8515625 C-143.55500252 336.24017993 -129.36417736 315.81253965 -117 294 C-135.54645531 306.20232576 -153.5260936 319.18577625 -171.46875 332.25390625 C-194.25040536 348.82170309 -217.56289626 364.95479721 -242 379 C-242.65645508 379.37898438 -243.31291016 379.75796875 -243.98925781 380.1484375 C-264.26410249 391.79386682 -284.99953426 402.04172006 -307 410 C-307.86657227 410.31807617 -308.73314453 410.63615234 -309.62597656 410.96386719 C-336.5891662 420.7714584 -365.78745778 427.06549306 -394.5625 427.203125 C-395.54434769 427.21000336 -396.52619537 427.21688171 -397.53779602 427.22396851 C-400.69190217 427.24105735 -403.84585001 427.24742355 -407 427.25 C-408.60988297 427.25250763 -408.60988297 427.25250763 -410.25228882 427.25506592 C-428.33507207 427.25675658 -445.83693541 426.34174252 -463.62890625 422.91796875 C-476.0383188 420.63274714 -488.74321963 420.47292456 -499.4375 427.8125 C-506.07888835 433.26751075 -510.64209233 440.82111509 -515.27856445 447.97192383 C-516.43900194 449.7043305 -517.71384782 451.35876247 -519 453 C-526.77771861 454.45008313 -533.64971752 450.99728379 -540.25 447.0625 C-545.82561484 442.88078887 -550.14979374 438.86989988 -554.3125 433.3125 C-564.85808079 419.6091826 -574.10268406 408.82657273 -591.6875 405.25 C-592.450625 405.1675 -593.21375 405.085 -594 405 C-589.95920734 400.73471885 -586.90754763 397.75171275 -580.875 397.5625 C-567.93058449 397.98483003 -558.93406884 408.95574472 -550.4765625 417.58203125 C-541.25073608 427.64337471 -541.25073608 427.64337471 -530 435 C-526.07297945 434.75417712 -523.63938157 433.34715268 -520.5 431.0625 C-519.63375 430.43859375 -518.7675 429.8146875 -517.875 429.171875 C-515.82647329 427.62434667 -513.81261843 426.06044909 -511.8125 424.453125 C-505.58351218 419.47030371 -499.76959146 415.27507374 -492 413 C-491.4237085 412.823479 -490.84741699 412.64695801 -490.25366211 412.46508789 C-487.39644744 411.87544495 -484.73828235 411.90660839 -481.8203125 411.9375 C-479.97904785 411.95043091 -479.97904785 411.95043091 -478.10058594 411.96362305 C-476.78864258 411.97562744 -475.47669922 411.98763184 -474.125 412 C-407.71996183 412.30682392 -343.59715862 396.74331249 -283 370 C-281.90042969 369.51563477 -280.80085937 369.03126953 -279.66796875 368.53222656 C-229.92267047 346.44779254 -182.28787338 318.1259215 -140.9609375 282.52734375 C-138.26673249 280.22767272 -135.52332519 278.01533638 -132.75 275.8125 C-117.88702691 263.69712164 -103.25454595 249.87570904 -90.87109375 235.20703125 C-89.34574967 233.40782581 -87.7954237 231.64402702 -86.22265625 229.88671875 C-72.385511 214.33497072 -60.1931521 197.53719453 -49 180 C-48.61183105 179.39478516 -48.22366211 178.78957031 -47.82373047 178.16601562 C-17.8605176 131.03761564 -2.23959934 78.21623718 -1.4375 22.5625 C-1.39338028 19.78970839 -1.34679373 17.01702302 -1.29469299 14.24436951 C-1.26301259 12.53942683 -1.23603951 10.83438819 -1.21446228 9.12928772 C-1.15636805 5.84545639 -1.04539249 3.13617748 0 0 Z M-900 479 C-885.45374015 526.13751553 -850.56504759 569.14117954 -809 595 C-808.32710937 595.41910645 -807.65421875 595.83821289 -806.9609375 596.27001953 C-794.25060817 604.065224 -780.41903816 610.14847169 -766 614 C-767.32770924 611.22121713 -768.80359341 608.69353891 -770.546875 606.15625 C-771.30859009 605.04443359 -771.30859009 605.04443359 -772.08569336 603.91015625 C-772.90952515 602.71712891 -772.90952515 602.71712891 -773.75 601.5 C-774.32564697 600.66339844 -774.90129395 599.82679688 -775.49438477 598.96484375 C-777.32588922 596.30731816 -779.16228522 593.65323415 -781 591 C-781.57927246 590.16210938 -782.15854492 589.32421875 -782.75537109 588.4609375 C-793.96806166 572.26236047 -805.24578802 556.03491308 -818 541 C-818.89628101 539.91833955 -819.79208633 538.83628481 -820.6875 537.75390625 C-831.67818716 524.57474217 -843.49867894 512.39230257 -857.35302734 502.21142578 C-858.90033795 501.07330612 -860.4293948 499.91048772 -861.95703125 498.74609375 C-868.94928929 493.62332541 -876.33680986 489.52945686 -884 485.5 C-885.00409912 484.97092041 -886.00819824 484.44184082 -887.04272461 483.89672852 C-888.47563843 483.15894165 -888.47563843 483.15894165 -889.9375 482.40625 C-890.79214844 481.96603516 -891.64679688 481.52582031 -892.52734375 481.07226562 C-895.02416299 479.98952174 -897.31972515 479.42913166 -900 479 Z M-405.46484375 526.4375 C-409.32367412 530.36506272 -412.71698467 534.58767676 -416 539 C-416.74765625 539.99386719 -417.4953125 540.98773437 -418.265625 542.01171875 C-432.53541168 561.74188299 -439.5071441 581.7134327 -439 606 C-404.31117243 592.97625869 -381.70095309 553.11303036 -364 523 C-363.34596191 521.88818359 -362.69192383 520.77636719 -362.01806641 519.63085938 C-358.27027914 513.25747871 -354.52834385 506.88066336 -350.79296875 500.5 C-350.1589917 499.4171875 -349.52501465 498.334375 -348.87182617 497.21875 C-346.8967018 493.82237074 -344.94519607 490.41358879 -343 487 C-364.69877192 487 -391.0188921 512.23060665 -405.46484375 526.4375 Z M-531.15234375 671.00390625 C-539.40977767 679.9247281 -543.06423935 692.06905169 -544 704 C-527.95042045 699.02149702 -519.3922918 687.05593092 -510 674 C-509.49952148 673.30986816 -508.99904297 672.61973633 -508.48339844 671.90869141 C-504.91676495 666.98816861 -501.37140153 662.05710229 -498 657 C-510.27189528 657 -522.25087722 662.77491631 -531.15234375 671.00390625 Z M-688 700 C-688.66059685 702.58266237 -688.66059685 702.58266237 -689 705 C-687.19402344 705.79664063 -687.19402344 705.79664063 -685.3515625 706.609375 C-683.77573883 707.32224761 -682.2002344 708.03582621 -680.625 708.75 C-679.8309375 709.09804688 -679.036875 709.44609375 -678.21875 709.8046875 C-677.45820312 710.15273438 -676.69765625 710.50078125 -675.9140625 710.859375 C-675.2123291 711.17358398 -674.5105957 711.48779297 -673.78759766 711.81152344 C-671.58341661 713.27696366 -670.92518009 714.54526429 -670 717 C-669.90554366 721.6992029 -670.71318013 726.38050289 -672.0625 730.875 C-673.19156526 734.09478489 -673.19156526 734.09478489 -673 738 C-660.88551571 744.59658563 -648.77252002 747.45937858 -635 745 C-636.01524498 738.43551828 -639.19513417 733.23841084 -644.3984375 729.0859375 C-646.56299995 727.64517196 -648.73817923 726.28169844 -651 725 C-650.73703418 718.95178604 -648.5587289 715.17847053 -645.27734375 710.13671875 C-643.82896315 708.12879456 -643.82896315 708.12879456 -644 706 C-645.11375 706.061875 -646.2275 706.12375 -647.375 706.1875 C-656.22928843 706.12568996 -663.92152737 702.30813537 -671.64672852 698.33764648 C-678.13288937 695.11912505 -682.80548039 694.5086507 -688 700 Z M-577 726 C-576 728 -576 728 -576 728 Z M-617 732 C-617.04063832 733.66617115 -617.042721 735.33388095 -617 737 C-615.23002526 737.81436868 -613.45898848 738.6264294 -611.6875 739.4375 C-610.70136719 739.88996094 -609.71523438 740.34242188 -608.69921875 740.80859375 C-602.17005507 743.69049668 -594.76444417 744.2524649 -587.80078125 742.421875 C-582.57395752 739.83782731 -579.8334731 734.85738246 -577 730 C-577.495 729.01 -577.495 729.01 -578 728 C-578.86625 728.33644531 -579.7325 728.67289063 -580.625 729.01953125 C-584.13626188 730.03958534 -586.39254728 730.06941145 -590 729.6875 C-591.68609375 729.53087891 -591.68609375 729.53087891 -593.40625 729.37109375 C-595.86499135 729.11720198 -598.32331012 728.85919324 -600.78125 728.59765625 C-602.0084375 728.48292969 -603.235625 728.36820313 -604.5 728.25 C-605.6240625 728.13140625 -606.748125 728.0128125 -607.90625 727.890625 C-611.76719748 728.02712314 -614.26332189 729.26332189 -617 732 Z M-529 730 C-552.06263796 746.6029639 -560.84905368 772.40974671 -565.45019531 799.47412109 C-568.85436958 821.3049758 -570.37608418 843.3574753 -572 865.375 C-573.97639905 892.07658869 -576.58068725 917.9961541 -583.51269531 943.95410156 C-584.07723474 945.97374001 -584.07723474 945.97374001 -584 948 C-571.76705996 948.95528382 -562.35140403 944.69419319 -553 937 C-521.06693327 909.00928719 -508.36179889 859.57960815 -505.53125 818.75390625 C-503.90737044 790.55783247 -505.54066462 757.16387442 -524 734 C-525.62828552 732.62005731 -527.28724465 731.27358732 -529 730 Z M-593 754 C-593.5259375 755.1446875 -593.5259375 755.1446875 -594.0625 756.3125 C-598.59061823 762.59343819 -607.35132202 762.94221308 -614.4765625 764.15625 C-619.46510013 765.35084438 -622.14464758 766.71697136 -625 771 C-625.16699232 774.12521833 -625.16699232 774.12521833 -625 777 C-624.05511719 777.14695312 -623.11023438 777.29390625 -622.13671875 777.4453125 C-619 779 -619 779 -618.17822266 780.78808594 C-617.60798708 783.14311191 -617.18165408 785.48018316 -616.8125 787.875 C-615.89533579 795.11561217 -615.89533579 795.11561217 -612 801 C-611.01 801 -610.02 801 -609 801 C-608.566875 799.948125 -608.13375 798.89625 -607.6875 797.8125 C-605.60091135 793.59461009 -602.76584778 790.20642626 -599.6875 786.6875 C-589.62712522 775.75384563 -589.62712522 775.75384563 -586 762 C-587.61327774 758.2639884 -589.6185906 756.21540616 -593 754 Z M-681 779 C-680.73896484 779.61069336 -680.47792969 780.22138672 -680.20898438 780.85058594 C-662.32377199 823.08913041 -656.14873049 866.92015672 -650 912 C-649.72974743 913.97680585 -649.4594938 915.95361155 -649.18918991 917.93041039 C-646.77126761 935.61737587 -644.37680394 953.30745982 -642 971 C-627.1553727 951.91108569 -623.83164327 922.36397817 -623 899 C-622.95875 897.93394531 -622.9175 896.86789062 -622.875 895.76953125 C-622.20421943 860.67932269 -628.98567932 820.55128356 -653.33984375 793.74609375 C-661.00240779 785.83598726 -669.93678277 780.25933807 -681 779 Z M-649 988 C-647.15333916 989.23110723 -645.28212332 990.42730755 -643.375 991.5625 C-640.4906318 994.52277263 -639.9775632 996.19240916 -639.73046875 1000.24609375 C-640.40496481 1007.13768391 -643.56133692 1013.58661148 -646.2265625 1019.91015625 C-648.9693882 1026.21608724 -648.9693882 1026.21608724 -649 1033 C-647.52737397 1035.24769237 -646.21848707 1035.89387771 -643.8125 1037.0625 C-639.12990259 1036.95844228 -636.21231521 1034.23919651 -633 1031 C-627.82600811 1023.40162333 -627.25347301 1014.96883834 -628 1006 C-629.50638649 998.4508517 -631.58577694 990.80668825 -638 986 C-642.72699395 984.26355324 -645.01176843 985.06747679 -649 988 Z M-576 989 C-576 999.56 -576 1010.12 -576 1021 C-566.53233474 1021.10033135 -566.53233474 1021.10033135 -559 1017 C-554.06255881 1011.93262614 -552.77189249 1007.29088197 -552.81982422 1000.3972168 C-552.83803223 999.50301025 -552.85624023 998.60880371 -552.875 997.6875 C-552.91625 994.820625 -552.9575 991.95375 -553 989 C-560.59 989 -568.18 989 -576 989 Z M-568 1047 C-568.08975098 1047.70866211 -568.17950195 1048.41732422 -568.27197266 1049.14746094 C-568.72090674 1052.68190838 -569.17249391 1056.21600801 -569.625 1059.75 C-569.71037018 1060.41705963 -569.79574036 1061.08411926 -569.88369751 1061.77139282 C-571.06715804 1070.99831106 -572.29592428 1080.21824585 -573.56640625 1089.43359375 C-573.70028748 1090.40634247 -573.8341687 1091.37909119 -573.97210693 1092.38131714 C-574.63735498 1097.21088603 -575.30647989 1102.0398756 -575.98095703 1106.86816406 C-577.71148498 1119.33563927 -579.18466138 1131.64156218 -579.125 1144.25 C-579.12886719 1145.08273437 -579.13273438 1145.91546875 -579.13671875 1146.7734375 C-579.1286258 1151.93673873 -578.74180329 1156.88979953 -578 1162 C-575.7262313 1161.15443336 -575.7262313 1161.15443336 -575.1328125 1158.4921875 C-574.80023437 1157.29851562 -574.46765625 1156.10484375 -574.125 1154.875 C-571.60321041 1146.26644855 -568.34043221 1137.96510423 -565.0625 1129.625 C-551.11124024 1097.2988658 -551.11124024 1097.2988658 -552.9609375 1063.20703125 C-556.10179062 1056.53567029 -561.06774582 1051.31436668 -567 1047 C-567.33 1047 -567.66 1047 -568 1047 Z M-649 1056 C-648.96970703 1056.59087402 -648.93941406 1057.18174805 -648.90820312 1057.79052734 C-648.76549989 1060.65172724 -648.6328506 1063.51332624 -648.5 1066.375 C-648.45230469 1067.30183594 -648.40460937 1068.22867187 -648.35546875 1069.18359375 C-647.39652092 1090.4174386 -648.0832317 1111.65396745 -649 1132.875 C-650.46229858 1161.60527511 -650.46229858 1161.60527511 -649.25 1190.3125 C-649.16202148 1191.22563965 -649.07404297 1192.1387793 -648.98339844 1193.07958984 C-647.09852094 1210.76198023 -641.68659194 1225.2570232 -629 1238 C-628.67 1237.34 -628.34 1236.68 -628 1236 C-628.68828661 1233.99853498 -629.45370235 1232.02349738 -630.25 1230.0625 C-641.79452542 1199.52873607 -634.14530254 1166.19550919 -629.06982422 1135.12207031 C-625.55915338 1113.55955372 -622.28284629 1089.21889865 -635.046875 1069.90234375 C-638.88563542 1064.60150512 -642.61539254 1059.76922522 -648 1056 C-648.33 1056 -648.66 1056 -649 1056 Z M-593 1184 C-599.9437376 1192.61981219 -602.10763549 1204.18029749 -602.25 1215 C-602.27578125 1216.175625 -602.3015625 1217.35125 -602.328125 1218.5625 C-601.83298266 1223.74970547 -600.20135908 1226.93833384 -596.3125 1230.375 C-595.549375 1230.91125 -594.78625 1231.4475 -594 1232 C-587.41066238 1226.33278543 -584.91341223 1215.36025919 -584 1207 C-583.49729801 1200.0070562 -583.3109104 1194.10607933 -587 1188 C-589.59429609 1185.24075511 -589.59429609 1185.24075511 -593 1184 Z " fill="#3A4599" transform="translate(1277,0)"/>
<path d="M0 0 C0.84175781 0.11794922 1.68351563 0.23589844 2.55078125 0.35742188 C16.40120494 2.45109057 22.9953062 8.3367929 31.4375 19.4375 C37.45233885 27.81474675 42.20277609 37.04949837 47.07836914 46.11816406 C53.12819907 57.35376281 59.55701029 67.96647588 67.875 77.6875 C68.39320313 78.31398438 68.91140625 78.94046875 69.4453125 79.5859375 C74.80008634 85.53269639 81.90284494 88.96450458 88.875 92.6875 C76.91430397 153.24639255 45.82512551 216.35770508 -5.125 253.6875 C-5.84816406 254.31785156 -6.57132813 254.94820312 -7.31640625 255.59765625 C-11.88594165 257.37081394 -15.48353768 255.50378622 -19.9375 253.875 C-21.33440063 253.38483398 -21.33440063 253.38483398 -22.75952148 252.88476562 C-31.25182131 249.81755616 -39.22574692 246.03762088 -47.125 241.6875 C-48.17945313 241.12289062 -49.23390625 240.55828125 -50.3203125 239.9765625 C-66.90174158 230.75503667 -81.71439488 217.80755979 -93.125 202.6875 C-93.52428711 202.16317383 -93.92357422 201.63884766 -94.33496094 201.09863281 C-121.20379641 165.58814221 -134.95651418 120.50391709 -140.125 76.6875 C-138.67480469 76.64882813 -138.67480469 76.64882813 -137.1953125 76.609375 C-121.19746797 75.9124392 -111.38590843 70.51318203 -100.26953125 59.08984375 C-96.14869766 54.4736094 -92.42687334 49.53427197 -88.64306641 44.64208984 C-71.58645404 22.68080992 -53.78338379 2.78694466 -24.5625 -1 C-16.23685557 -1.67627431 -8.24588111 -1.2808517 0 0 Z M-37.90234375 46.5078125 C-39.75889976 48.7192227 -41.10064252 50.69929986 -41.17333984 53.64868164 C-38.56607669 73.91170105 -31.17112962 94.81836334 -18.125 110.6875 C-17.48046875 111.52796875 -16.8359375 112.3684375 -16.171875 113.234375 C-7.03262734 124.18751914 7.84822925 131.68868517 21.875 133.6875 C24.98367499 133.15033925 26.59644488 131.80330118 28.875 129.6875 C29.60203125 129.12289062 30.3290625 128.55828125 31.078125 127.9765625 C39.37716872 121.24389458 45.23838884 112.35928683 46.875 101.6875 C48.50461711 82.97560924 44.27605246 65.04940022 32.2265625 50.3203125 C22.79768171 39.44096277 11.93597436 30.54456961 -2.8125 28.75 C-17.81872167 28.03951892 -27.8482925 36.21069627 -37.90234375 46.5078125 Z " fill="#3A4599" transform="translate(677.125,408.3125)"/>
</svg>
